<?xml version="1.0" encoding="utf-8"?>
<!-- Generator: Adobe Illustrator 21.1.0, SVG Export Plug-In . SVG Version: 6.00 Build 0)  -->
<svg version="1.1" id="Слой_1" xmlns="http://www.w3.org/2000/svg" xmlns:xlink="http://www.w3.org/1999/xlink" x="0px" y="0px"
	 viewBox="0 0 608 399.7" style="enable-background:new 0 0 608 399.7;" xml:space="preserve">
<style type="text/css">
	.st0{fill:#0086DC;}
	.st1{fill:#B3EBFF;}
	.st2{fill:#F7B43E;}
	.st3{fill:#37ABDD;}
	.st4{fill:#FFFFFF;}
	.st5{fill:#70BEF2;}
	.st6{fill:#2A2D40;}
	.st7{fill:#BDD9E5;}
	.st8{fill:#FFD66B;}
	.st9{fill:#233D68;}
	.st10{fill:#ABE0E5;}
	.st11{fill:#F68360;}
	.st12{fill:#656A73;}
	.st13{fill:#E6E5E5;}
	.st14{fill:#182E5A;}
	.st15{fill:#474F59;}
	.st16{fill:#D9D8D7;}
	.st17{fill:#FFFFFC;}
	.st18{fill:none;}
	.st19{fill:#4A8DCE;}
	.st20{fill:#FFB959;}
	.st21{fill:#CCCBCA;}
	.st22{fill:#91D3D9;}
	.st23{fill:#FFD680;}
	.st24{fill:#FAFCFC;}
	.st25{opacity:0.2;}
	.st26{fill:#231F20;}
	.st27{fill:#FFF5E5;}
	.st28{fill:none;stroke:#FFFFFF;stroke-width:2;stroke-miterlimit:10;}
</style>
<path class="st0" d="M95.9,276.2H81.2c-25.3,0-46.1,20.1-46.1,44.8c0,24.6,20.7,44.8,46.1,44.8h419.6c41.1,0,74.7-32.6,74.7-72.4
	S541.9,221,500.8,221c-17.3,0-33-13.8-33-30.7s14.2-30.7,31.5-30.7h17.9c18,0,32.8-14.4,32.8-31.9s-14.8-32-32.8-32h-50.9
	c-7,0-12.8-5.7-12.8-12.3c0-6.9,5.7-12.3,12.8-12.3h8.5c4.8,0,8.8-3.8,8.8-8.5l0,0c0-4.7-4-8.5-8.8-8.5H443c0,0-9.2,0-20.9,0
	s-13,13.4-42.6,13.4c-45.7,0-17.9,0-63.5,0c-6.3,0-11.5,5-11.5,11.1l0,0c0,6.2,5.2,11.1,11.5,11.1h11c9.1,0,16.7,7.3,16.7,16.2
	s-7.5,16.2-16.7,16.2h-16.6c-44.9,0-51.3,11.4-59.2,34s-87.6,24.5-87.6,24.5h-58.8c-13.8,0-25.1,10.9-25.1,24.4
	c0.1,8.7,2.9,18.8,21.4,26.5c8.5,3.4,14.1,11.9,14.1,21.4C115.4,265.6,109.2,276.2,95.9,276.2z"/>
<path class="st0" d="M95.9,276.2H81.2c-25.3,0-46.1,20.1-46.1,44.8c0,24.6,20.7,44.8,46.1,44.8h419.6c41.1,0,74.7-32.6,74.7-72.4
	S541.9,221,500.8,221c-17.3,0-33-13.8-33-30.7s14.2-30.7,31.5-30.7h17.9c18,0,32.8-14.4,32.8-31.9s-14.8-32-32.8-32h-50.9
	c-7,0-12.8-5.7-12.8-12.3c0-6.9,5.7-12.3,12.8-12.3h8.5c4.8,0,8.8-3.8,8.8-8.5l0,0c0-4.7-4-8.5-8.8-8.5H443c0,0-9.2,0-20.9,0
	s-13,13.4-42.6,13.4c-45.7,0-17.9,0-63.5,0c-6.3,0-11.5,5-11.5,11.1l0,0c0,6.2,5.2,11.1,11.5,11.1h11c9.1,0,16.7,7.3,16.7,16.2
	s-7.5,16.2-16.7,16.2h-16.6c-44.9,0-51.3,11.4-59.2,34s-87.6,24.5-87.6,24.5h-58.8c-13.8,0-25.1,10.9-25.1,24.4
	c0.1,8.7,2.9,18.8,21.4,26.5c8.5,3.4,14.1,11.9,14.1,21.4C115.4,265.6,109.2,276.2,95.9,276.2z"/>
<g>
	<g>
		<rect x="112.8" y="309.8" class="st1" width="75.6" height="48.2"/>
		<rect x="112.8" y="301.6" class="st2" width="75.6" height="8.2"/>
		<rect x="129.3" y="341.6" class="st3" width="42.2" height="2.9"/>
		<rect x="119" y="314.2" class="st4" width="63.1" height="9.8"/>
		<rect x="119" y="327.6" class="st5" width="29.1" height="9.7"/>
		<rect x="152.2" y="327.6" class="st5" width="30" height="9.8"/>
		<rect x="129.3" y="346.4" class="st3" width="42.2" height="2.9"/>
		<path class="st4" d="M131,303.5c1.3,0,2.2,0.9,2.2,2.2s-1,2.2-2.2,2.2c-1.3,0-2.2-0.9-2.2-2.2S129.7,303.5,131,303.5L131,303.5z
			 M117.6,303.5c1.3,0,2.2,0.9,2.2,2.2s-1,2.2-2.2,2.2c-1.3,0-2.2-0.9-2.2-2.2C115.5,304.5,116.5,303.5,117.6,303.5L117.6,303.5z
			 M124.3,303.5c1.3,0,2.2,0.9,2.2,2.2s-1,2.2-2.2,2.2s-2.2-0.9-2.2-2.2S123.1,303.5,124.3,303.5z"/>
	</g>
	<g>
		<g>
			<path id="SVGID_1_" class="st0" d="M499.6,70.9c-4.9,0-8.8-3.8-8.8-8.5s4-8.5,8.8-8.5c4.9,0,8.8,3.8,8.8,8.5
				S504.4,70.9,499.6,70.9z"/>
		</g>
		<g>
			<g>
				<g>
					<g>
						<g>
							<g>
								<g>
									<g>
										<defs>
											<path id="SVGID_2_" d="M499.6,70.9c-4.9,0-8.8-3.8-8.8-8.5s4-8.5,8.8-8.5c4.9,0,8.8,3.8,8.8,8.5S504.4,70.9,499.6,70.9z"
												/>
										</defs>
										<clipPath id="SVGID_3_">
											<use xlink:href="#SVGID_2_"  style="overflow:visible;"/>
										</clipPath>
									</g>
								</g>
							</g>
						</g>
					</g>
				</g>
			</g>
		</g>
	</g>
	<g>
		<g>
			<rect x="161.9" y="71.9" class="st6" width="45.4" height="23.7"/>
			<g>
				<rect x="207" y="71.9" class="st7" width="266.7" height="23.7"/>
			</g>
		</g>
		<g>
			<rect x="211.6" y="74.9" class="st4" width="257.4" height="17.5"/>
		</g>
		<g>
			<path class="st4" d="M186,85.2l0.8,0.8c-0.1,0.2-0.2,0.3-0.1,0.4l0,0l0,0l0,0l0,0l3.6,3.5l0,0l0,0l0.1,0.1
				c0.1,0.1,0.5-0.1,0.9-0.5s0.7-0.8,0.5-0.9l-0.1-0.1l0,0l0,0l-3.6-3.5l0,0c-0.1-0.1-0.2,0-0.4,0.1l-0.8-0.8
				c1.4-1.8,1.3-4.3-0.4-5.9c-1.9-1.8-4.7-1.8-6.5,0c-1.9,1.8-1.9,4.5,0,6.3C181.7,86.3,184.3,86.6,186,85.2z M185.8,83.9
				c-1.4,1.3-3.5,1.3-5,0c-1.4-1.3-1.4-3.4,0-4.8c1.4-1.3,3.5-1.3,5,0C187.2,80.4,187.2,82.7,185.8,83.9z"/>
		</g>
	</g>
	<g>
		<rect x="383.1" y="33.9" class="st5" width="39.8" height="267.2"/>
		<g>
			<g>
				<rect x="383.1" y="291.3" class="st4" width="10.5" height="1.9"/>
				<rect x="383.1" y="273.5" class="st4" width="10.5" height="1.9"/>
				<rect x="383.1" y="255.7" class="st4" width="10.5" height="1.9"/>
				<rect x="383.1" y="237.9" class="st4" width="10.5" height="1.9"/>
				<rect x="383.1" y="220.1" class="st4" width="10.5" height="1.9"/>
				<rect x="383.1" y="202.3" class="st4" width="10.5" height="1.9"/>
				<rect x="383.1" y="184.5" class="st4" width="10.5" height="1.9"/>
				<rect x="383.1" y="166.6" class="st4" width="10.5" height="1.9"/>
				<rect x="383.1" y="148.8" class="st4" width="10.5" height="1.9"/>
				<rect x="383.1" y="131" class="st4" width="10.5" height="1.9"/>
				<rect x="383.1" y="113.2" class="st4" width="10.5" height="1.9"/>
				<rect x="383.1" y="86.5" class="st4" width="5.3" height="1.9"/>
				<rect x="383.1" y="68.6" class="st4" width="5.5" height="1.9"/>
				<rect x="383.1" y="50.8" class="st4" width="5.5" height="1.9"/>
			</g>
			<g>
				<rect x="383.1" y="282.4" class="st4" width="5.5" height="1.9"/>
				<rect x="383.1" y="264.6" class="st4" width="5.5" height="1.9"/>
				<rect x="383.1" y="246.8" class="st4" width="5.5" height="1.9"/>
				<rect x="383.1" y="229" class="st4" width="5.5" height="1.9"/>
				<rect x="383.1" y="211.2" class="st4" width="5.5" height="1.9"/>
				<rect x="383.1" y="193.4" class="st4" width="5.5" height="1.9"/>
				<rect x="383.1" y="175.5" class="st4" width="5.5" height="1.9"/>
				<rect x="383.1" y="157.7" class="st4" width="5.5" height="1.9"/>
				<rect x="383.1" y="139.9" class="st4" width="5.5" height="1.9"/>
				<rect x="383.1" y="122.1" class="st4" width="5.5" height="1.9"/>
				<rect x="383.1" y="104.3" class="st4" width="5.5" height="1.9"/>
				<rect x="383.1" y="95.4" class="st4" width="10.5" height="1.9"/>
				<rect x="383.1" y="77.6" class="st4" width="10.5" height="1.9"/>
				<rect x="383.1" y="59.7" class="st4" width="10.5" height="1.9"/>
				<rect x="383.1" y="41.9" class="st4" width="10.5" height="1.9"/>
			</g>
		</g>
	</g>
	<g>
		<g>
			<polygon class="st2" points="326.4,207.2 320.3,207.2 318.6,215.9 328.2,215.9 			"/>
			<polygon class="st2" points="305.7,211 300.5,214.1 303.3,222.4 311.8,217.7 			"/>
			<polygon class="st2" points="289.8,224.4 286.7,229.6 293.4,235.4 298.5,227.2 			"/>
			<polygon class="st2" points="282.8,243.7 282.8,249.7 291.9,251.5 291.9,241.9 			"/>
			<polygon class="st2" points="286.7,263.8 289.8,269 298.5,266.1 293.4,257.9 			"/>
			<polygon class="st2" points="300.5,279.3 305.7,282.2 311.8,275.7 303.3,270.9 			"/>
			<polygon class="st2" points="320.3,286 326.4,286 328.2,277.4 318.6,277.4 			"/>
			<polygon class="st2" points="340.9,282.2 346.4,279.3 343.5,270.9 335,275.7 			"/>
			<polygon class="st2" points="356.9,269 360,263.8 353.2,257.9 348.2,266.1 			"/>
			<polygon class="st2" points="364,249.7 364,243.7 355,241.9 355,251.5 			"/>
			<polygon class="st2" points="360,229.6 356.9,224.4 348.2,227.2 353.2,235.4 			"/>
			<polygon class="st2" points="346.4,214.1 340.9,211 335,217.7 343.5,222.4 			"/>
		</g>
		<path class="st8" d="M323.3,215.7c-17.7,0-32,13.9-32,31.2c0,17.2,14.3,31.2,32,31.2s32-13.9,32-31.2
			C355.4,229.5,341,215.7,323.3,215.7z M323.3,255.3c-4.9,0-8.9-3.9-8.9-8.6c0-4.7,4-8.6,8.9-8.6s8.9,3.9,8.9,8.6
			C332.3,251.5,328.2,255.3,323.3,255.3z"/>
		<path class="st2" d="M323.3,231.8c-8.5,0-15.4,6.7-15.4,14.9s6.9,14.9,15.4,14.9s15.4-6.7,15.4-14.9
			C338.7,238.5,331.9,231.8,323.3,231.8z M323.3,254.1c-4.3,0-7.7-3.3-7.7-7.5s3.4-7.5,7.7-7.5c4.3,0,7.7,3.3,7.7,7.5
			S327.7,254.1,323.3,254.1z"/>
	</g>
	<g>
		<rect x="332.8" y="134.2" class="st9" width="144.4" height="181.2"/>
		<g>
			<rect x="348.4" y="149.7" class="st10" width="29.5" height="2.8"/>
			<rect x="348.4" y="171.4" class="st10" width="8.4" height="2.8"/>
			<rect x="383.1" y="149.7" class="st11" width="11.7" height="2.8"/>
			<rect x="359" y="171.4" class="st12" width="30" height="2.8"/>
			<rect x="356.8" y="157.1" class="st10" width="13.2" height="2.8"/>
			<rect x="356.8" y="193.9" class="st10" width="13.2" height="2.8"/>
			<rect x="348.4" y="238.1" class="st13" width="21.6" height="2.8"/>
			<rect x="356.8" y="201.4" class="st10" width="5.5" height="2.8"/>
			<rect x="373.2" y="193.9" class="st10" width="34.6" height="2.8"/>
			<rect x="370.8" y="216.2" class="st10" width="33.6" height="2.8"/>
			<rect x="363.9" y="297.2" class="st10" width="12.1" height="2.8"/>
			<rect x="408.5" y="245.5" class="st13" width="12.5" height="2.8"/>
			<rect x="373.5" y="282.2" class="st13" width="23.4" height="2.8"/>
			<rect x="381.1" y="297.2" class="st13" width="27.4" height="2.8"/>
			<rect x="430.4" y="260.5" class="st11" width="10" height="2.8"/>
			<rect x="410.6" y="216.2" class="st11" width="24.8" height="2.8"/>
			<rect x="411.7" y="193.9" class="st12" width="24.8" height="2.8"/>
			<rect x="441.6" y="193.9" class="st12" width="15.3" height="2.8"/>
			<rect x="356.8" y="178.9" class="st12" width="19.8" height="2.8"/>
			<rect x="356.8" y="186.5" class="st12" width="28" height="2.8"/>
			<rect x="364.3" y="201.4" class="st12" width="32.1" height="2.8"/>
			<rect x="356.8" y="253" class="st13" width="32.1" height="2.8"/>
			<rect x="356.8" y="260.5" class="st12" width="35.2" height="2.8"/>
			<rect x="386.8" y="289.7" class="st11" width="62.4" height="2.8"/>
			<rect x="417" y="297.2" class="st12" width="13.7" height="2.8"/>
			<rect x="395.8" y="260.5" class="st12" width="30.6" height="2.8"/>
			<rect x="405.8" y="282.2" class="st12" width="30.6" height="2.8"/>
			<rect x="364.3" y="208.8" class="st10" width="10.4" height="2.8"/>
			<rect x="364.3" y="223.7" class="st10" width="11.3" height="2.8"/>
			<rect x="356.8" y="245.5" class="st10" width="47.7" height="2.8"/>
			<rect x="348.4" y="282.2" class="st10" width="21.4" height="2.8"/>
			<rect x="356.8" y="289.7" class="st10" width="24.3" height="2.8"/>
			<rect x="378" y="208.8" class="st13" width="62.7" height="2.8"/>
			<rect x="363.5" y="267.9" class="st12" width="20.1" height="2.8"/>
			<rect x="390.4" y="267.9" class="st13" width="55.4" height="2.8"/>
			<rect x="402.9" y="201.4" class="st11" width="21.1" height="2.8"/>
			<rect x="387.8" y="186.5" class="st12" width="28" height="2.8"/>
			<rect x="417.6" y="186.5" class="st11" width="23.1" height="2.8"/>
			<rect x="449.3" y="186.5" class="st13" width="12.5" height="2.8"/>
			<rect x="383" y="178.9" class="st13" width="30.3" height="2.8"/>
			<rect x="374.9" y="157.1" class="st13" width="30" height="2.8"/>
		</g>
		<rect x="332.8" y="117.1" class="st14" width="144.4" height="17.2"/>
	</g>
	<path class="st15" d="M215.9,182.2c-1.6,0-2.8-1.2-2.8-2.7s1.3-2.7,2.8-2.7c1.6,0,2.8,1.2,2.8,2.7
		C218.8,181,217.5,182.2,215.9,182.2z"/>
	<path class="st16" d="M215.9,180.6c-0.7,0-1.2-0.6-1.2-1.1s0.6-1.1,1.2-1.1s1.2,0.6,1.2,1.1S216.6,180.6,215.9,180.6z"/>
	<g>
		<g>
			<path class="st17" d="M207.5,328.7c-1.9,0-3.4-1.4-3.4-3c0-1.7,1.6-3,3.4-3c1.9,0,3.4,1.4,3.4,3
				C211,327.3,209.4,328.7,207.5,328.7z M207.5,322.9c-1.7,0-3.1,1.2-3.1,2.7s1.4,2.7,3.1,2.7c1.7,0,3.1-1.2,3.1-2.7
				C210.6,324.2,209.2,322.9,207.5,322.9z"/>
		</g>
		<g>
			<path class="st17" d="M227.9,328.8C227.7,328.8,227.7,328.8,227.9,328.8c-0.1-0.1-0.2-0.1-0.2-0.2v-6.1c0-0.1,0-0.1,0.1-0.2
				c0.1,0,0.1,0,0.2,0l5.9,3c0.1,0,0.1,0.1,0.1,0.2s0,0.1-0.1,0.2L227.9,328.8L227.9,328.8z M228,322.9v5.4l5.3-2.7L228,322.9z"/>
		</g>
	</g>
	<g>
		<path class="st18" d="M216.3,290.6"/>
	</g>
	<g>
		<path class="st19" d="M202.6,177.7c0-0.6,0.7-1,1.4-1h23.9c0.7,0,1.4,0.5,1.4,1l0,0c0,0.6-0.7,1-1.4,1H204
			C203.3,178.8,202.6,178.3,202.6,177.7L202.6,177.7z"/>
	</g>
	<g>
		<path class="st19" d="M235.9,176.7c0.8,0,1.5,0.5,1.5,1.2s-0.7,1.2-1.5,1.2s-1.5-0.5-1.5-1.2S235.2,176.7,235.9,176.7z"/>
	</g>
	<path class="st6" d="M174.5,168.5c-0.3,0-0.6-0.1-0.7-0.4c-0.3-0.4-0.3-0.9,0.2-1.2l39.4-30.9c0.7-0.6,1.7-0.9,2.6-0.9
		c1-0.1,1.9,0.2,2.7,0.6l37,21c0.5,0.3,0.7,0.8,0.4,1.2c-0.3,0.4-0.8,0.6-1.3,0.4l-37-21c-0.6-0.3-1.1-0.5-1.8-0.4
		c-0.7,0-1.2,0.3-1.7,0.6l-39.4,30.9C174.9,168.4,174.6,168.5,174.5,168.5z"/>
	<g>
		<g>
			<path class="st9" d="M255.6,157.9h-77.5c-4.8,0-8.7,3.7-8.7,8.3v159c0,4.5,3.8,8.3,8.7,8.3h77.6c4.8,0,8.7-3.7,8.7-8.3V166.3
				C264.2,161.7,260.5,157.9,255.6,157.9z"/>
		</g>
		<g>
			<path class="st14" d="M216.8,157.9v175.4h38.7c4.8,0,8.7-3.7,8.7-8.3V166.3c0-4.5-3.8-8.3-8.7-8.3L216.8,157.9L216.8,157.9z"/>
		</g>
		<g>
			<g>
				<rect x="175.6" y="180.7" class="st4" width="82.8" height="134.1"/>
			</g>
		</g>
		<g>
			<path class="st14" d="M259.7,215c0-0.4,0.3-0.7,0.7-0.7h4.7c0.5,0,0.7,0.3,0.7,0.7v10.3c0,0.4-0.3,0.7-0.7,0.7h-4.7
				c-0.5,0-0.7-0.3-0.7-0.7V215z"/>
		</g>
		<g>
			<rect x="168.5" y="221.7" class="st9" width="5.9" height="11.6"/>
		</g>
		<g>
			<path class="st14" d="M259.7,230.8c0-0.4,0.3-0.7,0.7-0.7h4.7c0.5,0,0.7,0.3,0.7,0.7v10.3c0,0.4-0.3,0.7-0.7,0.7h-4.7
				c-0.5,0-0.7-0.3-0.7-0.7V230.8z"/>
		</g>
		<rect x="175.3" y="180.3" class="st4" width="82.8" height="116.9"/>
		<rect x="175.3" y="180.3" class="st5" width="82.8" height="11.7"/>
	</g>
	<path class="st8" d="M215.9,140.1c-6.3,0-11.5-5.2-11.5-11.6c0-0.9,0.7-1.7,1.7-1.7c0.9,0,1.7,0.7,1.7,1.7c0,4.5,3.7,8.3,8.3,8.3
		s8.3-3.7,8.3-8.3c0-4.5-3.7-8.3-8.3-8.3c-0.9,0-1.7-0.7-1.7-1.7v-4.6c0-0.9,0.7-1.7,1.7-1.7c0.9,0,1.7,0.7,1.7,1.7v3.2
		c5.5,0.8,9.9,5.7,9.9,11.5C227.5,134.9,222.3,140.1,215.9,140.1z"/>
	<path class="st20" d="M215.9,115.7c-2.4,0-4.5-2-4.5-4.5s2-4.5,4.5-4.5s4.5,2,4.5,4.5S218.5,115.7,215.9,115.7z M215.9,109.9
		c-0.7,0-1.2,0.6-1.2,1.1c0,0.6,0.6,1.1,1.2,1.1s1.2-0.6,1.2-1.1C217.1,110.5,216.6,109.9,215.9,109.9z"/>
	<path class="st9" d="M216,112.1c-0.6,0-0.9-0.5-0.9-0.9V72c0-0.6,0.5-0.9,0.9-0.9c0.6,0,0.9,0.5,0.9,0.9v39.3
		C216.9,111.7,216.6,112.1,216,112.1z"/>
	<path class="st15" d="M215.9,136.8c-0.6,0.1-1.1,0.3-1.6,0.6l-2.4,1.9c-0.7-0.3-1.3-0.6-1.9-0.9l2.9-2.3
		C213.9,136.6,214.8,136.8,215.9,136.8z"/>
	<g>
		<rect x="450.9" y="100.5" class="st2" width="90.4" height="54.9"/>
		<g>
			<path class="st4" d="M496.2,140.8c-7.3,0-13.1-5.7-13.1-12.8c0-7,5.9-12.8,13.1-12.8c7.3,0,13.1,5.7,13.1,12.8
				C509.3,135.1,503.4,140.8,496.2,140.8z M496.2,116c-6.8,0-12.4,5.4-12.4,12c0,6.6,5.5,12,12.4,12s12.4-5.4,12.4-12
				C508.4,121.4,502.9,116,496.2,116z"/>
			<polygon class="st4" points="493.8,123.9 501.1,128 493.8,132 			"/>
		</g>
		<rect x="450.9" y="155.4" class="st4" width="90.4" height="16.5"/>
		<g>
			<g>
				<g>
					<g>
						<path class="st21" d="M518.1,163.7c0-0.6,0.3-1.1,0.9-1.1s0.9,0.6,0.9,1.1c0,0.6-0.3,1.1-0.9,1.1
							C518.3,164.8,518.1,164.2,518.1,163.7z M519.6,163.7c0-0.5-0.2-0.9-0.7-0.9s-0.7,0.5-0.7,0.9c0,0.5,0.2,0.9,0.7,0.9
							C519.4,164.6,519.6,164.1,519.6,163.7z"/>
						<path class="st21" d="M520.1,164.5l0.2-0.2c0.2,0.2,0.4,0.3,0.7,0.3c0.4,0,0.6-0.2,0.6-0.5s-0.3-0.5-0.6-0.5
							c-0.1,0-0.2,0-0.3,0v-0.3c0,0,0.2,0,0.3,0c0.3,0,0.6-0.1,0.6-0.4s-0.3-0.4-0.6-0.4s-0.5,0.1-0.7,0.3l-0.2-0.2
							c0.2-0.2,0.5-0.4,0.8-0.4c0.5,0,0.8,0.2,0.8,0.6c0,0.4-0.3,0.6-0.5,0.6c0.2,0,0.6,0.2,0.6,0.6c0,0.4-0.3,0.6-0.8,0.6
							C520.5,164.8,520.2,164.7,520.1,164.5z"/>
						<path class="st21" d="M522.2,163.4c0-0.1,0.1-0.2,0.2-0.2s0.2,0.1,0.2,0.2c0,0.1-0.1,0.2-0.2,0.2
							C522.3,163.5,522.2,163.5,522.2,163.4z M522.2,164.7c0-0.1,0.1-0.2,0.2-0.2s0.2,0.1,0.2,0.2s-0.1,0.2-0.2,0.2
							C522.3,164.8,522.2,164.8,522.2,164.7z"/>
						<path class="st21" d="M524,164.8v-0.6h-1.1v-0.3l1-1.4h0.4v1.4h0.4v0.3h-0.4v0.6H524z M524,162.8l-0.8,1.1h0.8V162.8z"/>
						<path class="st21" d="M524.9,164.2c0-0.3,0.3-0.6,0.6-0.6c-0.3-0.1-0.6-0.3-0.6-0.6c0-0.5,0.4-0.6,0.8-0.6
							c0.4,0,0.8,0.2,0.8,0.6c0,0.3-0.3,0.5-0.6,0.6c0.3,0.1,0.6,0.3,0.6,0.6c0,0.4-0.4,0.6-0.8,0.6
							C525.3,164.8,524.9,164.7,524.9,164.2z M526.3,164.2c0-0.3-0.4-0.5-0.6-0.5c-0.2,0-0.6,0.2-0.6,0.5s0.3,0.4,0.6,0.4
							C526,164.6,526.3,164.5,526.3,164.2z M526.3,163.2c0-0.3-0.3-0.4-0.6-0.4s-0.6,0.2-0.6,0.4c0,0.3,0.4,0.4,0.6,0.4
							C525.9,163.5,526.3,163.5,526.3,163.2z"/>
					</g>
					<g>
						<path class="st21" d="M465.7,163.7c0-0.6,0.3-1.1,0.9-1.1s0.9,0.6,0.9,1.1c0,0.6-0.3,1.1-0.9,1.1
							C466.1,164.8,465.7,164.2,465.7,163.7z M467.3,163.7c0-0.5-0.2-0.9-0.7-0.9s-0.7,0.5-0.7,0.9c0,0.5,0.2,0.9,0.7,0.9
							C467.1,164.6,467.3,164.1,467.3,163.7z"/>
						<path class="st21" d="M468.4,164.8V163l-0.4,0.4l-0.2-0.2l0.6-0.6h0.3v2.3L468.4,164.8L468.4,164.8z"/>
						<path class="st21" d="M469.2,163.4c0-0.1,0.1-0.2,0.2-0.2s0.2,0.1,0.2,0.2c0,0.1-0.1,0.2-0.2,0.2
							C469.3,163.5,469.2,163.5,469.2,163.4z M469.2,164.7c0-0.1,0.1-0.2,0.2-0.2s0.2,0.1,0.2,0.2s-0.1,0.2-0.2,0.2
							C469.3,164.8,469.2,164.8,469.2,164.7z"/>
						<path class="st21" d="M470.3,164.8V163l-0.4,0.4l-0.2-0.2l0.6-0.6h0.3v2.3L470.3,164.8L470.3,164.8z"/>
						<path class="st21" d="M471.4,164.8l0.9-2H471v-0.3h1.7v0.2l-1,2L471.4,164.8L471.4,164.8z"/>
					</g>
				</g>
			</g>
			<g>
				<g>
					<path class="st21" d="M515.4,163H491v1.4h24.4c0.4,0,0.7-0.4,0.7-0.7C516.1,163.3,515.7,163,515.4,163z"/>
					<path class="st22" d="M491.5,163.7c0,0.5-0.4,0.7-0.7,0.7h-13.9c-0.4,0-0.7-0.4-0.7-0.7l0,0c0-0.4,0.4-0.7,0.7-0.7h13.9
						C491.3,163,491.5,163.3,491.5,163.7L491.5,163.7z"/>
				</g>
				<path class="st4" d="M492.9,163.7c0,1.1-0.9,2-2,2c-1.2,0-2-0.9-2-2s0.9-2,2-2S492.9,162.5,492.9,163.7z"/>
			</g>
			<g>
				<polygon class="st21" points="456,161.4 459.9,163.7 456,166 				"/>
				<g>
					<g>
						<rect x="532.4" y="162.3" class="st21" width="1.9" height="2.7"/>
						<polygon class="st21" points="536.4,166.6 534.3,165 534.3,162.3 536.4,160.8 						"/>
					</g>
				</g>
			</g>
		</g>
	</g>
	<g>
		<rect x="314.2" y="148.1" class="st23" width="82.4" height="17.2"/>
		<rect x="296.5" y="148.1" class="st20" width="17.7" height="17.2"/>
		<rect x="396.7" y="148.1" class="st20" width="17.7" height="17.2"/>
		<rect x="321.5" y="155.9" class="st4" width="67.7" height="1.7"/>
		<polygon class="st4" points="302.4,153.3 308.4,156.7 302.4,160.2 		"/>
		<g>
			<g>
				<rect x="402.7" y="154.7" class="st4" width="2.8" height="4"/>
				<polygon class="st4" points="408.5,161 405.4,158.7 405.4,154.7 408.5,152.5 				"/>
			</g>
		</g>
		<path class="st20" d="M342.3,156.7c0,1.9-1.6,3.4-3.5,3.4c-2,0-3.5-1.5-3.5-3.4s1.6-3.4,3.5-3.4
			C340.8,153.3,342.3,154.9,342.3,156.7z"/>
	</g>
	<g>
		<g>
			<path class="st5" d="M149.1,150.2l-0.3-2.1l-1.3-0.6l-1.8,1.3c-0.2,0.2-0.5,0.2-0.7,0.2l0,0c-0.3,0-0.6-0.2-0.7-0.4l-1.9-1.9
				c-0.4-0.5-0.5-0.9-0.1-1.4l1.4-1.7l-0.6-1.2l-2.1-0.3c-0.6-0.1-1-0.6-1-1v-2.7c0-0.6,0.5-0.9,1-1l2.1-0.3l0.6-1.2l-1.4-1.7
				c-0.4-0.5-0.4-0.9,0.1-1.4l1.9-1.9c0.5-0.4,1-0.5,1.5-0.1l1.8,1.3l1.3-0.6l0.3-2.1c0.1-0.6,0.6-0.9,1.1-0.9h2.7
				c0.6,0,1,0.5,1.1,0.9l0.3,2.1l1.3,0.6l1.8-1.3c0.5-0.4,1.1-0.3,1.5,0.1l1.9,1.9c0.4,0.5,0.5,0.9,0.1,1.4l-1.5,1.7l0.6,1.2
				l2.1,0.3c0.6,0.1,1,0.6,1,1v2.7c0,0.6-0.5,0.9-1,1l-2.1,0.3l-0.6,1.2l1.4,1.7c0.4,0.5,0.4,0.9,0,1.3c-0.6,0.7-1.6,1.6-2,1.9
				c-0.4,0.4-1,0.4-1.4,0.1l-1.8-1.3l-1.3,0.6l-0.3,2.1c-0.1,0.6-0.6,0.9-1.1,0.9h-2.7C149.7,151.1,149.2,150.8,149.1,150.2z
				 M153.1,147.9c0-0.5,0.4-0.9,0.7-0.9l1.4-0.6c0.4-0.2,0.9-0.2,1.3,0.2l1.7,1.1c0.5-0.5,1.1-0.9,1.7-1.5l-1.3-1.6
				c-0.2-0.4-0.3-0.8-0.2-1.2l0.6-1.3c0.2-0.4,0.7-0.7,1-0.7l1.9-0.3V139l-1.9-0.3c-0.5,0-0.9-0.4-1-0.7l-0.6-1.3
				c-0.2-0.5-0.2-0.9,0.2-1.3l1.2-1.5l-1.7-1.6l-1.6,1.1c-0.3,0.2-0.8,0.3-1.3,0.2l-1.4-0.6c-0.4-0.2-0.7-0.6-0.7-0.9l-0.3-1.9h-2.1
				l-0.3,1.9c-0.1,0.5-0.4,0.9-0.7,0.9l-1.4,0.6c-0.5,0.2-1,0.2-1.4-0.2l-1.6-1.1l-1.7,1.6l1.2,1.6c0.2,0.4,0.3,0.8,0.2,1.2
				l-0.6,1.3c-0.2,0.5-0.7,0.7-1,0.7l-1.9,0.3v2.1l1.9,0.3c0.5,0,0.9,0.4,1,0.7l0.6,1.3c0.2,0.4,0.2,0.9-0.2,1.2l-1.2,1.6l1.7,1.6
				l1.7-1.1c0.3-0.2,0.8-0.3,1.3-0.2l1.4,0.6c0.4,0.2,0.7,0.6,0.7,0.9l0.3,1.9h2.1L153.1,147.9z M147.2,139.8c0-2.4,1.9-4.3,4.4-4.3
				l0,0c1.2,0,2.2,0.5,3.1,1.3c0.8,0.8,1.4,1.9,1.4,3s-0.5,2.2-1.4,3c-0.8,0.8-1.9,1.3-3.1,1.3C149.2,144.3,147.2,142.3,147.2,139.8
				z M148.6,140.1c0,1.6,1.4,2.9,3,2.9c0.8,0,1.7-0.4,2.1-0.9c0.6-0.6,0.9-1.3,0.9-2.1s-0.4-1.6-0.9-2.1c-0.6-0.6-1.4-0.9-2.1-0.9
				C150,137,148.6,138.3,148.6,140.1z"/>
		</g>
	</g>
	<g>
		<g>
			<path class="st5" d="M316.6,118.4l-0.2-1.3l-0.7-0.3l-1,0.8c-0.2,0.2-0.4,0.2-0.6,0.2l0,0c-0.3,0-0.5-0.1-0.7-0.3l-1.4-1.3
				c-0.4-0.4-0.4-0.9-0.1-1.2l0.8-0.9l-0.3-0.6l-1.4-0.2c-0.5-0.1-0.8-0.5-0.8-0.9v-1.8c0-0.5,0.4-0.9,0.8-0.9l1.4-0.2l0.3-0.6
				l-0.8-0.9c-0.3-0.4-0.3-0.9,0.1-1.2l1.4-1.3c0.4-0.3,0.9-0.4,1.3-0.1l1,0.8l0.7-0.3l0.2-1.3c0.1-0.5,0.5-0.8,1-0.8h1.9
				c0.5,0,0.9,0.4,1,0.8l0.2,1.3l0.7,0.3l1-0.8c0.4-0.3,0.9-0.3,1.3,0.1l1.4,1.3c0.4,0.4,0.4,0.8,0.1,1.2l-0.8,0.9l0.3,0.6l1.4,0.2
				c0.5,0.1,0.8,0.5,0.8,0.9v1.8c0,0.5-0.4,0.9-0.8,0.9l-1.4,0.2l-0.3,0.6l0.7,0.9c0.3,0.4,0.3,0.9,0,1.2c-0.5,0.5-1,0.9-1.4,1.3
				s-0.9,0.4-1.3,0.1l-1-0.8l-0.7,0.3l-0.2,1.3c-0.1,0.5-0.5,0.8-1,0.8h-1.9C317.1,119.3,316.6,118.9,316.6,118.4z M319.2,116.8
				c0.1-0.4,0.4-0.7,0.7-0.8l0.9-0.5c0.4-0.2,0.8-0.1,1.1,0.2l0.9,0.7c0.2-0.2,0.5-0.5,0.7-0.7l-0.7-0.9c-0.2-0.4-0.3-0.7-0.2-1
				l0.4-0.9c0.2-0.4,0.5-0.6,0.8-0.7l1.1-0.2v-1l-1.1-0.2c-0.4-0.1-0.7-0.4-0.8-0.7l-0.4-0.9c-0.2-0.4-0.1-0.8,0.2-1l0.7-0.9
				l-0.7-0.7l-0.9,0.7c-0.4,0.2-0.7,0.3-1.1,0.2L320,107c-0.4-0.2-0.7-0.5-0.7-0.8l-0.2-1H318l-0.2,1c-0.1,0.4-0.4,0.7-0.7,0.8
				l-0.9,0.4c-0.4,0.2-0.8,0.1-1.1-0.2l-0.9-0.7l-0.7,0.7l0.7,0.9c0.2,0.4,0.3,0.7,0.2,1l-0.5,0.9c-0.2,0.4-0.5,0.6-0.8,0.7L312,111
				v1l1.1,0.2c0.5,0.1,0.7,0.4,0.9,0.7l0.4,0.9c0.2,0.4,0.1,0.8-0.2,1l-0.7,0.9l0.7,0.7l0.9-0.7c0.4-0.2,0.7-0.3,1.1-0.2l0.9,0.4
				c0.4,0.2,0.7,0.6,0.7,0.9l0.2,1h1.1L319.2,116.8z M315.2,111.6c0-1.7,1.5-3.1,3.2-3.1c0.8,0,1.7,0.3,2.1,0.9
				c0.6,0.6,0.9,1.3,0.9,2.1c0,0.8-0.3,1.6-0.9,2.1c-0.6,0.6-1.4,0.9-2.1,0.9C316.8,114.6,315.2,113.3,315.2,111.6z M316.6,111.5
				c0,0.9,0.8,1.8,1.9,1.8c0.5,0,0.9-0.2,1.3-0.6s0.6-0.7,0.6-1.2s-0.2-0.9-0.6-1.2c-0.4-0.4-0.7-0.6-1.3-0.6
				C317.5,109.8,316.6,110.6,316.6,111.5z"/>
		</g>
	</g>
	<g>
		<g>
			<path class="st5" d="M302.1,314l-0.2-1.6l-0.8-0.4l-1.3,0.9c-0.2,0.2-0.5,0.2-0.7,0.2l0,0c-0.3,0-0.5-0.1-0.7-0.3l-1.6-1.5
				c-0.4-0.4-0.4-0.9-0.1-1.3l1-1.2l-0.4-0.8l-1.7-0.2c-0.6-0.1-0.9-0.5-0.9-0.9v-2.1c0-0.5,0.4-0.9,0.8-0.9l1.7-0.2l0.4-0.8l-1-1.2
				c-0.4-0.5-0.3-0.9,0.1-1.3l1.6-1.5c0.4-0.4,0.9-0.4,1.4-0.1l1.3,0.9l0.8-0.4l0.2-1.6c0.1-0.5,0.5-0.8,1-0.8h2.1
				c0.5,0,0.9,0.4,1,0.8l0.2,1.6l0.8,0.4l1.3-0.9c0.5-0.3,1-0.3,1.4,0.1l1.6,1.5c0.4,0.4,0.4,0.9,0.1,1.3l-1,1.2l0.4,0.8l1.7,0.2
				c0.6,0.1,0.9,0.5,0.9,0.9v2.2c0,0.5-0.4,0.9-0.8,0.9l-1.7,0.2l-0.4,0.8l1,1.2c0.3,0.5,0.3,0.9,0,1.3c-0.5,0.6-1.2,1.2-1.7,1.6
				c-0.4,0.4-1,0.4-1.4,0.1l-1.3-0.9l-0.8,0.4l-0.2,1.6c-0.1,0.6-0.5,0.9-1,0.9h-2.1C302.6,315,302.1,314.6,302.1,314z M305.1,312.3
				c0.1-0.4,0.4-0.7,0.7-0.9l1-0.5c0.5-0.2,0.9-0.1,1.2,0.2l1.1,0.8c0.4-0.3,0.7-0.6,1-0.9l-0.9-1.1c-0.2-0.4-0.3-0.8-0.2-1.1
				l0.5-0.9c0.2-0.4,0.5-0.6,0.9-0.7l1.4-0.2v-1.4l-1.4-0.2c-0.4-0.1-0.7-0.4-0.9-0.7l-0.5-0.9c-0.2-0.5-0.1-0.8,0.2-1.1l0.8-1
				l-1-0.9l-1.1,0.8c-0.4,0.2-0.8,0.3-1.2,0.2l-1-0.5c-0.4-0.2-0.7-0.5-0.7-0.9l-0.2-1.3h-1.5l-0.2,1.3c-0.1,0.4-0.4,0.7-0.7,0.9
				l-1,0.5c-0.5,0.2-0.8,0.1-1.2-0.2l-1.1-0.8l-1,0.9l0.8,1c0.2,0.4,0.3,0.8,0.2,1.1l-0.5,0.9c-0.2,0.4-0.5,0.6-0.9,0.7l-1.4,0.2
				v1.4l1.3,0.3c0.4,0.1,0.7,0.4,0.9,0.7l0.5,0.9c0.2,0.5,0.1,0.9-0.2,1.1l-0.8,1l1,0.9l1.1-0.8c0.4-0.2,0.8-0.3,1.2-0.2l1,0.5
				c0.4,0.2,0.7,0.5,0.7,0.9l0.2,1.3h1.5L305.1,312.3z M300.6,306.2c0-1.9,1.7-3.4,3.5-3.4l0,0c0.9,0,1.9,0.4,2.5,0.9
				c0.7,0.6,1,1.5,1,2.5c0,0.9-0.4,1.8-1,2.5c-0.7,0.7-1.6,0.9-2.5,0.9C302.2,309.7,300.6,308.1,300.6,306.2z M301.9,306.2
				c0,1.1,1,2.1,2.1,2.1c0.6,0,1.1-0.2,1.6-0.6c0.5-0.5,0.7-0.9,0.7-1.5s-0.2-1-0.7-1.5s-1-0.6-1.6-0.6
				C302.9,304,301.9,305,301.9,306.2z"/>
		</g>
	</g>
	<g>
		<g>
			<path class="st24" d="M515.1,86.2c0-0.2-0.1-0.5-0.1-0.7c0-5.7,4.7-10.1,10.4-10.1c2.1,0,4.2,0.6,5.8,1.7
				c2.6-4.4,7.4-7.2,12.9-7.2c8.4,0,15.1,6.5,15.1,14.7c0,0.6,0,1-0.1,1.6c4.7,1.2,8.3,5.3,8.3,10.3l0,0c0,5.9-4.9,10.7-11,10.7
				h-38.2c-6,0-11-4.7-11-10.7l0,0C507.3,91.6,510.6,87.6,515.1,86.2z"/>
		</g>
		<g>
			<polygon class="st9" points="542.3,99.8 527,91 542.3,82.6 542.7,83.2 528.5,91 542.7,99 			"/>
		</g>
		<g>
			<path class="st2" d="M531.5,90.9c0,1.9-1.7,3.5-3.6,3.5c-2,0-3.6-1.6-3.6-3.5s1.7-3.5,3.6-3.5C530,87.4,531.5,89,531.5,90.9z"/>
		</g>
		<g>
			<path class="st5" d="M546,82.8c0,1.9-1.7,3.5-3.6,3.5c-2,0-3.6-1.6-3.6-3.5s1.7-3.5,3.6-3.5C544.5,79.3,546,80.8,546,82.8z"/>
		</g>
		<g>
			<path class="st5" d="M546,99.1c0,1.9-1.7,3.5-3.6,3.5c-2,0-3.6-1.6-3.6-3.5s1.7-3.5,3.6-3.5C544.5,95.6,546,97.2,546,99.1z"/>
		</g>
		<g>
			<path class="st7" d="M559.2,86.1c0.1-0.6,0.1-1,0.1-1.6c0-8.1-6.7-14.7-15.1-14.7c-4.1,0-7.8,1.6-10.5,4.2c1.9-1.3,4.4-2,6.9-2
				c6.9,0,12.5,5.4,12.5,12.1c0,1.9-0.5,3.7-1.4,5.3c3.9,1.2,6.6,4.7,6.6,8.9l0,0c0,4.1-2.7,7.6-6.4,8.8h4.5c6,0,11-4.7,11-10.7l0,0
				C567.5,91.5,564.1,87.4,559.2,86.1z"/>
		</g>
	</g>
	<g>
		<g>
			<g>
				<g>
					<path class="st5" d="M472.9,291.3c-11.9,0-21.5,7.5-21.5,16.7c0,5.5,3.4,10.4,8.7,13.4c-0.4,2.2-1.6,4.3-3.9,5.2
						c-4.4,1.8,5.2,2.1,11.5-2.3c1.7,0.3,3.3,0.5,5,0.5c11.9,0,21.5-7.5,21.5-16.7C494.6,298.8,485,291.3,472.9,291.3z"/>
				</g>
				<g>
					<g>
						<path class="st5" d="M478,308.6c0,1.6,1.4,2.8,2.9,2.8s2.9-1.3,2.9-2.8c0-1.6-1.4-2.8-2.9-2.8S478,307,478,308.6z"/>
					</g>
					<g>
						<path class="st5" d="M470.6,308.6c0,1.6,1.4,2.8,2.9,2.8c1.6,0,2.9-1.3,2.9-2.8c0-1.6-1.4-2.8-2.9-2.8
							C472,305.7,470.6,307,470.6,308.6z"/>
					</g>
					<g>
						<path class="st5" d="M462.9,308.6c0,1.6,1.4,2.8,2.9,2.8c1.7,0,2.9-1.3,2.9-2.8c0-1.6-1.4-2.8-2.9-2.8
							C464.3,305.6,462.9,307,462.9,308.6z"/>
					</g>
				</g>
			</g>
		</g>
		<g class="st25">
			<path class="st26" d="M479.7,289.1c11.9,0,21.5,7.5,21.5,16.7c0,5.5-3.4,10.4-8.7,13.4c0.4,2.2,1.6,4.3,3.9,5.2
				c4.4,1.8-5.2,2.1-11.5-2.3c-1.7,0.3-3.3,0.5-5,0.5c-11.9,0-21.5-7.5-21.5-16.7C458.3,296.5,468,289.1,479.7,289.1z"/>
		</g>
		<g>
			<path class="st4" d="M458.7,303.9c0,9.2,9.6,16.7,21.5,16.7c1.8,0,3.4-0.2,5-0.5c6.3,4.5,16,4.2,11.5,2.3
				c-2.3-0.9-3.4-2.9-3.9-5.2c5.3-3.1,8.7-8,8.7-13.4c0-9.2-9.6-16.7-21.5-16.7C468.3,287.3,458.7,294.8,458.7,303.9z"/>
		</g>
		<g>
			<g>
				<path class="st9" d="M475.2,304.5c0,1.6-1.4,2.8-2.9,2.8c-1.7,0-2.9-1.3-2.9-2.8c0-1.6,1.4-2.8,2.9-2.8
					C473.8,301.6,475.2,302.9,475.2,304.5z"/>
			</g>
			<g>
				<path class="st9" d="M482.8,304.5c0,1.6-1.4,2.8-2.9,2.8c-1.7,0-2.9-1.3-2.9-2.8c0-1.6,1.4-2.8,2.9-2.8S482.8,302.9,482.8,304.5
					z"/>
			</g>
			<g>
				<path class="st9" d="M490.2,304.5c0,1.6-1.4,2.8-2.9,2.8c-1.6,0-2.9-1.3-2.9-2.8c0-1.6,1.4-2.8,2.9-2.8
					C488.8,301.6,490.2,302.9,490.2,304.5z"/>
			</g>
		</g>
	</g>
	<rect x="182.4" y="200.3" class="st2" width="69.5" height="45.4"/>
	<rect x="220.2" y="250.6" class="st5" width="31.4" height="30.5"/>
	<rect x="183.3" y="250.6" class="st1" width="31.4" height="30.5"/>
	<polygon class="st27" points="226.7,208.4 187.1,208.4 187.1,211.4 226.7,211.4 	"/>
	<polygon class="st27" points="247.1,214.2 187.1,214.2 187.1,217.2 247.1,217.2 	"/>
	<polygon class="st27" points="247.1,219.5 187.1,219.5 187.1,222.5 247.1,222.5 	"/>
	<polygon class="st3" points="251.8,286.6 183.1,286.6 183.1,291.2 251.8,291.2 	"/>
	<polygon class="st3" points="251.8,294.5 183.1,294.5 183.1,299 251.8,299 	"/>
</g>
<g>
	<g>
		<path class="st28" d="M148.4,299.2V291c0-3.8,2.8-6.9,6.3-6.9h6.4"/>
		<g>
			<polygon class="st4" points="159.6,289.2 168.2,284.2 159.6,279.2 			"/>
		</g>
	</g>
</g>
<g>
	<g>
		<path class="st28" d="M209.8,335.1v8.1c0,3.8-2.8,6.9-6.3,6.9h-6.4"/>
		<g>
			<polygon class="st4" points="198.5,345.1 189.9,350.1 198.5,355.1 			"/>
		</g>
	</g>
</g>
</svg>
